<?xml version="1.0" encoding="iso-8859-1"?>
<!-- Generator: Adobe Illustrator 19.0.0, SVG Export Plug-In . SVG Version: 6.00 Build 0)  -->
<svg version="1.1" id="Capa_1" xmlns="http://www.w3.org/2000/svg" xmlns:xlink="http://www.w3.org/1999/xlink" x="0px" y="0px"
	 viewBox="0 0 464 464" style="enable-background:new 0 0 464 464;" xml:space="preserve">
<path style="fill:#D1E3EE;" d="M40.672,308H448v-40c0-35.346-28.654-64-64-64H40.672C27.046,204,16,215.046,16,228.672v54.656
	C16,296.954,27.046,308,40.672,308z"/>
<path style="fill:#A9BFD1;" d="M13.688,301.128l2.568,1.712c5.05,3.362,10.981,5.158,17.048,5.16H464v-32l-16-8H0v7.552
	C0.002,285.829,5.138,295.425,13.688,301.128z"/>
<path style="fill:#12BBC3;" d="M64,204h256l-15.712-28.28c-14.989-26.983-43.429-43.719-74.296-43.72H184
	c-40.399,0.001-78.535,18.654-103.336,50.544L64,204z"/>
<path style="fill:#A9BFD1;" d="M312,204h16v104h-16V204z"/>
<path style="fill:#394D5D;" d="M312,268h16v40h-16V268z"/>
<g>
	<path style="fill:#A9BFD1;" d="M112,204v28.168c28.75,10.165,47.979,37.338,48,67.832c-0.02,2.674-0.193,5.345-0.52,8H143.2
		l0.32-1.4c0.298-2.188,0.458-4.392,0.48-6.6c-0.214-25.449-17.406-47.618-42-54.16c-3.531-0.912-5.999-4.097-6-7.744V204H112z"/>
	<path style="fill:#A9BFD1;" d="M200,204h16v104h-16V204z"/>
</g>
<path style="fill:#394D5D;" d="M200,268h16v40h-16V268z"/>
<path style="fill:#FFD884;" d="M392,228h41.912c3.89,4.85,7.054,10.239,9.392,16H392V228z"/>
<path style="fill:#B21D48;" d="M16,228h32v16H16V228z"/>
<circle style="fill:#394D5D;" cx="88" cy="300" r="32"/>
<circle style="fill:#D1E3EE;" cx="88" cy="300" r="8"/>
<circle style="fill:#394D5D;" cx="384" cy="300" r="32"/>
<path style="fill:#128DAA;" d="M80.688,182.544c19.464-24.959,47.32-42.014,78.4-48c19.03,44.643,70.648,65.407,115.292,46.377
	c8.627-3.677,16.609-8.712,23.644-14.913c2.309,3.077,4.404,6.309,6.272,9.672L320,204H64L80.688,182.544z"/>
<path style="fill:#394D5D;" d="M200,132h16v72h-16V132z"/>
<circle style="fill:#D1E3EE;" cx="384" cy="300" r="8"/>
<path style="fill:#394D5D;" d="M152.48,268c4.951,9.94,7.525,20.895,7.52,32c-0.02,2.674-0.193,5.345-0.52,8H143.2l0.32-1.4
	c0.298-2.188,0.458-4.392,0.48-6.6c-0.036-11.469-3.619-22.646-10.256-32H152.48z"/>
<g>
</g>
<g>
</g>
<g>
</g>
<g>
</g>
<g>
</g>
<g>
</g>
<g>
</g>
<g>
</g>
<g>
</g>
<g>
</g>
<g>
</g>
<g>
</g>
<g>
</g>
<g>
</g>
<g>
</g>
</svg>
