<svg id="Capa_1" enable-background="new 0 0 497 497" height="512" viewBox="0 0 497 497" width="512" xmlns="http://www.w3.org/2000/svg"><g><path d="m271.504 200-8.391-36.5 8.391-36.5h140.632c3.281 0 6.373 1.539 8.353 4.159 6.607 8.74 13.214 17.48 19.821 26.221 2.952 3.905 2.917 9.309-.087 13.175-6.577 8.466-13.155 16.932-19.732 25.398-1.985 2.554-5.036 4.049-8.269 4.049h-140.718z" fill="#d3effd"/><path d="m432.88 180c-4.13 5.32-8.26 10.64-12.39 15.95-1.98 2.56-5.04 4.05-8.27 4.05h-140.72l-8.39-36.5 2.3-10 6.09 26.5z" fill="#b2e5fb"/><path d="m225.554 162.5 4.67 37-4.67 37h-140.584c-3.309 0-6.424-1.563-8.403-4.218-6.637-8.9-13.274-17.8-19.911-26.7-2.906-3.897-2.871-9.254.086-13.112 6.607-8.621 13.214-17.241 19.822-25.862 1.985-2.589 5.06-4.108 8.32-4.108z" fill="#df646e"/><path d="m230.22 199.5-4.67 37h-20v-74h20z" fill="#df646e"/><path d="m225.554 58.181h45.95v390.638h-45.95z" fill="#ecb880"/><path d="m228.96 189.5-.001.008-3.409-27.008h-20v39.305c0 8.116-6.579 14.695-14.695 14.695h-125.825c-.08 0-.15 0-.23-.01 3.92 5.26 7.84 10.53 11.77 15.79 1.98 2.66 5.09 4.22 8.4 4.22h120.58 20l4.67-37z" fill="#dc4955"/><path d="m245.55 58.18h-20v46.68 343.96h20v-337.151c0-1.487 1.215-2.67 2.703-2.669h.027c8.18 0 16.01-1.53 23.22-4.33v-46.49z" fill="#e9a761"/><path d="m319.5 497h-140c-2.761 0-5-2.239-5-5v-48c0-11.046 8.954-20 20-20h110c11.046 0 20 8.954 20 20v48c0 2.761-2.239 5-5 5z" fill="#b7e546"/><path d="m323.99 439.51c-1.44-.33-2.95-.51-4.49-.51h-116c-7.73 0-14 6.27-14 14v44h-10c-2.76 0-5-2.24-5-5v-48c0-11.05 8.95-20 20-20h110c9.5 0 17.46 6.62 19.49 15.51z" fill="#abd641"/><ellipse cx="248.279" cy="44.5" fill="#faf063" rx="44.452" ry="44.5"/><path d="m288.07 64.35c-7.28 14.61-22.36 24.65-39.79 24.65-24.55 0-44.45-19.92-44.45-44.5 0-17.46 10.04-32.57 24.66-39.85-2.99 5.97-4.66 12.72-4.66 19.85 0 24.58 19.9 44.5 44.45 44.5 7.11 0 13.83-1.67 19.79-4.65z" fill="#f8e837"/></g></svg>