<svg id="Capa_1" enable-background="new 0 0 512 512" height="512" viewBox="0 0 512 512" width="512" xmlns="http://www.w3.org/2000/svg"><g><path d="m346.96 103.435c-4.139 0-7.494 3.355-7.494 7.494v24.846c0 15.937-12.966 28.902-28.903 28.902h-6.843c-4.957 0-9.278 3.537-10.276 8.411-2.734 13.371-14.637 23.075-28.305 23.075h-1.643v-120.311c0-4.139-3.355-7.494-7.494-7.494s-7.494 3.355-7.494 7.494v120.311h-1.426c-13.668 0-25.571-9.704-28.305-23.076-.997-4.873-5.319-8.409-10.276-8.409h-6.844c-15.937 0-28.902-12.965-28.902-28.902v-24.846c0-4.139-3.355-7.494-7.494-7.494s-7.494 3.355-7.494 7.494v24.846c0 24.201 19.689 43.89 43.889 43.89h3.325c5.431 18.447 22.582 31.486 42.1 31.486h18.056c19.519 0 36.67-13.038 42.1-31.486h3.324c24.201 0 43.89-19.689 43.89-43.89v-24.846c.002-4.139-3.352-7.495-7.491-7.495z" fill="#2b4d66"/><g><path d="m196.552 64.302h-62.36l9.853 58.907c.921 5.507 5.686 9.541 11.27 9.541h20.115c5.583 0 10.348-4.035 11.27-9.541z" fill="#f6e266"/></g><g><path d="m179.058 64.302-7.346 43.92c-.921 5.507-5.687 9.541-11.27 9.541h-17.308l.911 5.446c.921 5.507 5.687 9.541 11.27 9.541h20.115c5.583 0 10.348-4.034 11.27-9.541l9.853-58.907z" fill="#f1d333"/></g><g><path d="m203.116 67.299c2.933 0 5.085-2.817 4.253-5.629-4.091-13.825-16.882-23.914-32.034-23.914h-20.59c-15.152 0-27.943 10.088-32.034 23.914-.832 2.812 1.321 5.629 4.253 5.629z" fill="#4a80aa"/></g><g><path d="m207.369 61.67c-4.091-13.825-16.882-23.914-32.034-23.914h-20.59c-.791 0-1.574.034-2.351.088 14.111.982 25.805 10.722 29.683 23.826.832 2.812-1.32 5.629-4.253 5.629h25.291c2.934 0 5.087-2.817 4.254-5.629z" fill="#407093"/></g><g><path d="m378.471 64.302h-62.36l9.853 58.907c.921 5.507 5.686 9.541 11.27 9.541h20.115c5.583 0 10.348-4.035 11.27-9.541z" fill="#f6e266"/></g><g><path d="m360.977 64.302-7.346 43.92c-.921 5.507-5.687 9.541-11.27 9.541h-17.308l.911 5.446c.921 5.507 5.687 9.541 11.27 9.541h20.115c5.583 0 10.348-4.034 11.27-9.541l9.853-58.907z" fill="#f1d333"/></g><g><path d="m385.035 67.299c2.933 0 5.085-2.817 4.253-5.629-4.091-13.825-16.882-23.914-32.034-23.914h-20.59c-15.152 0-27.943 10.088-32.034 23.914-.832 2.812 1.321 5.629 4.253 5.629z" fill="#4a80aa"/></g><g><path d="m389.288 61.67c-4.091-13.825-16.882-23.914-32.034-23.914h-20.59c-.791 0-1.574.034-2.351.088 14.111.982 25.805 10.722 29.683 23.826.832 2.812-1.32 5.629-4.253 5.629h25.291c2.934 0 5.087-2.817 4.254-5.629z" fill="#407093"/></g><g><path d="m287.623 26.545h-62.36l9.853 58.907c.921 5.507 5.686 9.541 11.27 9.541h20.114c5.583 0 10.348-4.035 11.27-9.541z" fill="#f6e266"/></g><g><path d="m270.128 26.545-7.346 43.92c-.921 5.507-5.687 9.541-11.27 9.541h-17.308l.911 5.446c.921 5.507 5.687 9.541 11.27 9.541h20.115c5.583 0 10.348-4.034 11.27-9.541l9.853-58.907z" fill="#f1d333"/></g><g><path d="m294.187 29.543c2.933 0 5.085-2.817 4.253-5.629-4.091-13.826-16.882-23.914-32.034-23.914h-20.59c-15.152 0-27.943 10.088-32.034 23.914-.832 2.812 1.321 5.629 4.253 5.629z" fill="#4a80aa"/></g><g><path d="m298.44 23.914c-4.091-13.826-16.882-23.914-32.034-23.914h-20.59c-.791 0-1.574.034-2.351.088 14.111.982 25.805 10.722 29.683 23.826.832 2.812-1.32 5.629-4.253 5.629h25.291c2.934 0 5.086-2.817 4.254-5.629z" fill="#407093"/></g><g><path d="m275.564 432.518v-236.573c0-5.518-4.473-9.992-9.992-9.992h-19.14c-5.518 0-9.992 4.474-9.992 9.992v236.574h39.124z" fill="#4a80aa"/></g><g><path d="m253.767 195.945v236.574h21.797v-236.574c0-5.518-4.473-9.992-9.992-9.992h-19.14c-.452 0-.893.04-1.329.098 4.889.652 8.664 4.827 8.664 9.894z" fill="#407093"/></g><g><path d="m283.542 421.768v-18.684c0-2.207-1.789-3.997-3.997-3.997h-47.086c-2.207 0-3.997 1.789-3.997 3.997v18.684c0 1.621-.786 3.141-2.109 4.078l-6.473 4.582c-1.852 1.311-2.953 3.439-2.953 5.709v65.872c0 5.518 4.473 9.992 9.992 9.992h58.167c5.518 0 9.992-4.473 9.992-9.992v-65.872c0-2.269-1.101-4.397-2.953-5.709l-6.473-4.582c-1.324-.937-2.11-2.457-2.11-4.078z" fill="#4a80aa"/></g><g><path d="m292.124 430.428-6.473-4.582c-1.323-.936-2.109-2.457-2.109-4.078v-18.684c0-2.207-1.789-3.997-3.997-3.997h-19.562c2.207 0 3.997 1.789 3.997 3.997v18.684c0 1.621.786 3.141 2.109 4.078l6.473 4.582c1.852 1.311 2.953 3.439 2.953 5.709v65.872c0 5.518-4.473 9.992-9.992 9.992h19.562c5.518 0 9.992-4.473 9.992-9.992v-65.872c0-2.27-1.101-4.398-2.953-5.709z" fill="#407093"/></g></g></svg>